<mxfile host="app.diagrams.net" modified="2024-07-18T13:44:01.622Z" agent="Mozilla/5.0 (Windows NT 10.0; Win64; x64) AppleWebKit/537.36 (KHTML, like Gecko) Chrome/123.0.0.0 Safari/537.36" version="24.7.1" etag="UiZPHFD-XgJAYxI562HD" type="github">
  <diagram name="第 1 页" id="CdJP2duZm47f5d2UArEF">
    <mxGraphModel>
      <root>
        <mxCell id="0" />
        <mxCell id="1" parent="0" />
      </root>
    </mxGraphModel>
  </diagram>
</mxfile>
